<?xml version="1.0" encoding="UTF-8"?>
<!DOCTYPE svg PUBLIC "-//W3C//DTD SVG 1.1//EN" "http://www.w3.org/Graphics/SVG/1.1/DTD/svg11.dtd">
<!-- Creator: CorelDRAW -->
<svg xmlns="http://www.w3.org/2000/svg" xml:space="preserve" width="2.60918in" height="2.96867in" version="1.1" style="shape-rendering:geometricPrecision; text-rendering:geometricPrecision; image-rendering:optimizeQuality; fill-rule:evenodd; clip-rule:evenodd"
viewBox="0 0 488.98 556.35"
 xmlns:xlink="http://www.w3.org/1999/xlink"
 xmlns:xodm="http://www.corel.com/coreldraw/odm/2003">
 <defs>
  <style type="text/css">
   <![CDATA[
    .fil0 {fill:#FEFEFE;fill-rule:nonzero}
   ]]>
  </style>
 </defs>
 <g id="Capa_x0020_1">
  <metadata id="CorelCorpID_0Corel-Layer"/>
  <g id="_2035882458816">
   <path class="fil0" d="M244.49 195.59c-8.99,0 -16.3,-7.31 -16.3,-16.3 0,-8.98 7.31,-16.29 16.3,-16.29 8.35,0 15.25,6.32 16.19,14.43 -0.24,1.49 -0.28,2.98 -0.12,4.48 -1.26,7.73 -7.98,13.68 -16.07,13.68zm-61.41 79.84c33.69,21.57 75.04,23.87 113.47,6.19 8.18,-3.75 11.75,-13.44 7.99,-21.62 -3.76,-8.17 -13.43,-11.75 -21.61,-8 -28.1,12.94 -58.08,11.46 -82.26,-4.03 -23.6,-15.1 -37.68,-40.79 -37.68,-68.68 0,-44.94 36.57,-81.49 81.5,-81.49 44.94,0 81.49,36.55 81.49,81.49 0,8.99 -7.31,16.3 -16.3,16.3 -8.21,0 -15.89,-6.22 -16.3,-16.05 0,-0.09 0,-0.16 0,-0.25 0,-26.96 -21.94,-48.9 -48.9,-48.9 -26.96,0 -48.9,21.94 -48.9,48.9 0,26.97 21.93,48.9 48.9,48.9 12.52,0 23.94,-4.73 32.6,-12.5 8.66,7.76 20.08,12.5 32.6,12.5 26.96,0 48.9,-21.94 48.9,-48.9 0,-62.91 -51.18,-114.1 -114.1,-114.1 -62.91,0 -114.1,51.19 -114.1,114.1 0,39.05 19.7,75 52.69,96.14z"/>
   <path class="fil0" d="M456.38 500.7l-123.65 -123.65 123.65 -123.63 0 247.28zm-400.74 23.05l130.4 -130.39 116.9 0 130.39 130.39 -377.68 0zm-23.05 -23.05l0 -247.28 123.64 123.63 -123.64 123.65zm32.6 -260.8l-25.85 -25.84 25.85 -25.86 0 51.7zm325.98 -207.31l0 116.27c0,0 0,0 0,0.01l0 123.65 -88.24 88.23 -116.9 0 -88.25 -88.23 0 -123.65c0,-0.01 0,-0.01 0,-0.01l0 -116.27 293.39 0zm58.45 181.48l-25.85 25.84 0 -51.7 25.85 25.86zm39.36 -0.03c-0.01,-4.21 -1.7,-8.43 -4.78,-11.5l-60.43 -60.42 0 -125.81c0,-9 -7.29,-16.3 -16.3,-16.3l-325.99 0c-9,0 -16.3,7.29 -16.3,16.3l0 125.81 -60.43 60.42c-0.06,0.06 -0.1,0.13 -0.16,0.19 -3.05,3.13 -4.61,7.28 -4.61,11.31 0,0.02 0,0.03 0,0.03l0 293.39c0,27 21.97,48.9 48.9,48.9l391.18 0c26.99,0 48.9,-21.96 48.9,-48.9l0 -293.39c0,0 0,-0.01 0,-0.03z"/>
  </g>
 </g>
</svg>
