<?xml version="1.0" encoding="UTF-8"?>
<!DOCTYPE svg PUBLIC "-//W3C//DTD SVG 1.1//EN" "http://www.w3.org/Graphics/SVG/1.1/DTD/svg11.dtd">
<!-- Creator: CorelDRAW -->
<svg xmlns="http://www.w3.org/2000/svg" xml:space="preserve" width="2.61612in" height="2.97561in" version="1.1" style="shape-rendering:geometricPrecision; text-rendering:geometricPrecision; image-rendering:optimizeQuality; fill-rule:evenodd; clip-rule:evenodd"
viewBox="0 0 491.34 558.86"
 xmlns:xlink="http://www.w3.org/1999/xlink"
 xmlns:xodm="http://www.corel.com/coreldraw/odm/2003">
 <defs>
  <style type="text/css">
   <![CDATA[
    .str0 {stroke:#373435;stroke-width:1.3;stroke-miterlimit:2.61313}
    .fil0 {fill:#373435;fill-rule:nonzero}
   ]]>
  </style>
 </defs>
 <g id="Capa_x0020_1">
  <metadata id="CorelCorpID_0Corel-Layer"/>
  <g id="_2035869329568">
   <path class="fil0 str0" d="M245.67 196.66c-9.01,0 -16.33,-7.33 -16.33,-16.33 0,-9 7.33,-16.33 16.33,-16.33 8.37,0 15.29,6.33 16.22,14.46 -0.24,1.49 -0.29,2.99 -0.12,4.49 -1.26,7.75 -8,13.71 -16.1,13.71zm-61.54 80.01c33.76,21.61 75.2,23.92 113.71,6.2 8.2,-3.76 11.78,-13.47 8.01,-21.67 -3.77,-8.18 -13.46,-11.78 -21.66,-8.01 -28.16,12.96 -58.21,11.49 -82.44,-4.04 -23.65,-15.14 -37.76,-40.88 -37.76,-68.82 0,-45.04 36.64,-81.67 81.68,-81.67 45.04,0 81.67,36.63 81.67,81.67 0,9.01 -7.33,16.33 -16.33,16.33 -8.23,0 -15.92,-6.23 -16.33,-16.08 0,-0.09 0,-0.16 0,-0.25 0,-27.01 -21.98,-49.01 -49,-49.01 -27.02,0 -49,21.99 -49,49.01 0,27.03 21.98,49.01 49,49.01 12.54,0 23.99,-4.74 32.67,-12.53 8.67,7.78 20.13,12.53 32.67,12.53 27.02,0 49.01,-21.98 49.01,-49.01 0,-63.05 -51.29,-114.34 -114.34,-114.34 -63.05,0 -114.34,51.3 -114.34,114.34 0,39.14 19.74,75.16 52.8,96.35z"/>
   <path class="fil0 str0" d="M458.02 502.43l-123.91 -123.92 123.91 -123.9 0 247.82zm-401.6 23.1l130.68 -130.67 117.15 0 130.67 130.67 -378.5 0zm-23.1 -23.1l0 -247.82 123.91 123.9 -123.91 123.92zm32.67 -261.36l-25.9 -25.89 25.9 -25.92 0 51.81zm326.69 -207.76l0 116.52c0,0 0,0 0,0.01l0 123.92 -88.43 88.42 -117.15 0 -88.44 -88.42 0 -123.92c0,-0.01 0,-0.01 0,-0.01l0 -116.52 294.02 0zm58.57 181.87l-25.9 25.89 0 -51.81 25.9 25.92zm39.44 -0.03c-0.01,-4.22 -1.7,-8.45 -4.79,-11.53l-60.56 -60.55 0 -126.09c0,-9.02 -7.31,-16.33 -16.33,-16.33l-326.69 0c-9.02,0 -16.33,7.31 -16.33,16.33l0 126.09 -60.56 60.55c-0.06,0.06 -0.1,0.13 -0.16,0.19 -3.06,3.14 -4.62,7.3 -4.62,11.34 0,0.02 0,0.03 0,0.03l0 294.03c0,27.06 22.01,49 49,49l392.03 0c27.05,0 49.01,-22 49.01,-49l0 -294.03c0,0 0,-0.01 0,-0.03z"/>
  </g>
 </g>
</svg>
