<?xml version="1.0" encoding="UTF-8"?>
<!DOCTYPE svg PUBLIC "-//W3C//DTD SVG 1.1//EN" "http://www.w3.org/Graphics/SVG/1.1/DTD/svg11.dtd">
<!-- Creator: CorelDRAW -->
<svg xmlns="http://www.w3.org/2000/svg" xml:space="preserve" width="2.36146in" height="3.3585in" version="1.1" style="shape-rendering:geometricPrecision; text-rendering:geometricPrecision; image-rendering:optimizeQuality; fill-rule:evenodd; clip-rule:evenodd"
viewBox="0 0 258.72 367.95"
 xmlns:xlink="http://www.w3.org/1999/xlink"
 xmlns:xodm="http://www.corel.com/coreldraw/odm/2003">
 <defs>
  <style type="text/css">
   <![CDATA[
    .fil0 {fill:#FEFEFE;fill-rule:nonzero}
   ]]>
  </style>
 </defs>
 <g id="Capa_x0020_1">
  <metadata id="CorelCorpID_0Corel-Layer"/>
  <g id="_2036691777936">
   <path class="fil0" d="M221.97 184.57l-90.98 151.9 -93.35 -150.44c-10.52,-16.99 -16.22,-36.58 -16.22,-56.67 0,-59.43 48.5,-107.94 107.94,-107.94 59.44,0 107.87,48.51 107.87,107.94 0,19.49 -5.33,38.58 -15.26,55.21zm-92.61 -184.57c-71.33,0 -129.36,58.03 -129.36,129.36 0,24.1 6.68,47.62 19.31,68.02l102.68 165.47c1.97,3.18 5.44,5.1 9.16,5.1 0.03,0 0.06,0 0.09,0 3.76,-0.03 7.23,-2.02 9.17,-5.24l100.06 -167.08c11.94,-19.97 18.25,-42.89 18.25,-66.27 0,-71.32 -58.03,-129.36 -129.36,-129.36z"/>
   <path class="fil0" d="M129.36 172.62c-23.9,0 -43.26,-19.43 -43.26,-43.27 0,-23.77 19.49,-43.26 43.26,-43.26 23.77,0 43.19,19.49 43.19,43.26 0,23.49 -18.91,43.27 -43.19,43.27zm0 -107.95c-35.66,0 -64.68,29.01 -64.68,64.68 0,35.44 28.54,64.68 64.68,64.68 36.58,0 64.68,-29.63 64.68,-64.68 0,-35.67 -29.01,-64.68 -64.68,-64.68z"/>
  </g>
 </g>
</svg>
