<?xml version="1.0" encoding="UTF-8"?>
<!DOCTYPE svg PUBLIC "-//W3C//DTD SVG 1.1//EN" "http://www.w3.org/Graphics/SVG/1.1/DTD/svg11.dtd">
<!-- Creator: CorelDRAW -->
<svg xmlns="http://www.w3.org/2000/svg" xml:space="preserve" width="2.35872in" height="2.35883in" version="1.1" style="shape-rendering:geometricPrecision; text-rendering:geometricPrecision; image-rendering:optimizeQuality; fill-rule:evenodd; clip-rule:evenodd"
viewBox="0 0 309.61 309.63"
 xmlns:xlink="http://www.w3.org/1999/xlink"
 xmlns:xodm="http://www.corel.com/coreldraw/odm/2003">
 <defs>
  <style type="text/css">
   <![CDATA[
    .str0 {stroke:#373435;stroke-width:0.91;stroke-miterlimit:2.61313}
    .fil0 {fill:#373435;fill-rule:nonzero}
   ]]>
  </style>
 </defs>
 <g id="Capa_x0020_1">
  <metadata id="CorelCorpID_0Corel-Layer"/>
  <path class="fil0 str0" d="M161.67 267.7l-119.8 -119.87c-29.52,-29.52 -31.14,-75.87 -4.99,-107.33l50.99 50.99c-13.4,15.18 -12.84,38.33 1.68,52.85l75.61 75.67c0,0 0,0 0.01,0 14.5,14.51 37.64,15.1 52.85,1.69l50.99 50.99c-31.36,26.1 -77.61,24.73 -107.33,-4.99zm-93.04 -246.5l38.37 38.24c3.53,3.54 3.53,9.26 0,12.8l-6.4 6.4 -51.14 -51.14 6.36 -6.31c3.53,-3.52 9.26,-3.52 12.8,0.02zm181.43 181.37l38.38 38.38c3.52,3.53 3.52,9.27 0,12.79l-6.4 6.4 -51.17 -51.17 6.39 -6.4c3.53,-3.52 9.27,-3.52 12.79,0zm51.17 25.59l-38.37 -38.37c-10.58,-10.59 -27.8,-10.59 -38.38,0l-17.44 17.44c-8.02,8.02 -21.06,8.02 -29.07,0l-75.61 -75.67c-8.03,-8.03 -8.03,-21.04 0,-29.07 2.81,-2.81 10.88,-10.88 17.45,-17.45 10.53,-10.53 10.68,-27.7 -0.01,-38.39l-38.37 -38.25c-10.58,-10.58 -27.8,-10.58 -38.35,-0.02 -7.9,7.83 -10.44,10.35 -13.98,13.86 -38.15,38.16 -38.15,100.24 0,138.39l119.8 119.87c38.24,38.24 100.14,38.25 138.39,0l13.96 -13.96c10.58,-10.58 10.58,-27.8 -0.01,-38.38z"/>
 </g>
</svg>
