<?xml version="1.0" encoding="UTF-8"?>
<!DOCTYPE svg PUBLIC "-//W3C//DTD SVG 1.1//EN" "http://www.w3.org/Graphics/SVG/1.1/DTD/svg11.dtd">
<!-- Creator: CorelDRAW -->
<svg xmlns="http://www.w3.org/2000/svg" xml:space="preserve" width="2.35178in" height="2.35189in" version="1.1" style="shape-rendering:geometricPrecision; text-rendering:geometricPrecision; image-rendering:optimizeQuality; fill-rule:evenodd; clip-rule:evenodd"
viewBox="0 0 408.87 408.89"
 xmlns:xlink="http://www.w3.org/1999/xlink"
 xmlns:xodm="http://www.corel.com/coreldraw/odm/2003">
 <defs>
  <style type="text/css">
   <![CDATA[
    .fil0 {fill:#FEFEFE;fill-rule:nonzero}
   ]]>
  </style>
 </defs>
 <g id="Capa_x0020_1">
  <metadata id="CorelCorpID_0Corel-Layer"/>
  <path class="fil0" d="M213.52 353.95l-158.67 -158.76c-39.1,-39.1 -41.25,-100.49 -6.61,-142.16l67.53 67.54c-17.75,20.1 -17.01,50.76 2.22,69.99l100.14 100.23c0,0 0,0 0.01,0 19.21,19.22 49.86,20 70,2.24l67.54 67.54c-41.54,34.57 -102.79,32.76 -142.16,-6.61zm-123.23 -326.48l50.82 50.65c4.68,4.69 4.68,12.27 0,16.95l-8.48 8.48 -67.73 -67.74 8.43 -8.36c4.67,-4.66 12.27,-4.66 16.96,0.02zm240.3 240.21l50.83 50.83c4.67,4.67 4.67,12.27 0,16.94l-8.48 8.48 -67.77 -67.78 8.47 -8.48c4.67,-4.66 12.27,-4.66 16.94,0zm67.77 33.89l-50.82 -50.82c-14.02,-14.02 -36.82,-14.02 -50.83,0l-23.1 23.1c-10.62,10.62 -27.89,10.62 -38.51,0l-100.15 -100.23c-10.64,-10.64 -10.64,-27.86 0,-38.5 3.72,-3.72 14.41,-14.41 23.11,-23.11 13.95,-13.95 14.15,-36.69 -0.01,-50.85l-50.82 -50.66c-14.01,-14.01 -36.82,-14.01 -50.79,-0.03 -10.46,10.38 -13.83,13.71 -18.52,18.36 -50.53,50.54 -50.53,132.76 0,183.29l158.68 158.77c50.65,50.65 132.64,50.66 183.3,0l18.49 -18.49c14.01,-14.01 14.01,-36.81 -0.01,-50.83z"/>
 </g>
</svg>
